PathFileType  4	(X/Y/Z) C:\Users\antoi\Documents\MyRepositories\mobilecap\ResultsAnalysis
DataRate	CameraRate	NumFrames	NumMarkers	Units	OrigDataRate	OrigDataStartFrame	OrigNumFrames
100.0	100.0	4	51	mm	100.0	1	136
Frame#	Time	r_knee			r_shank_antsup			r_ankle			r_calc			r_5meta			r_toe			L_knee			L_shank_antsup			L_ankle			L_calc			L_5meta			L_toe			r_sh2			r_sh3			r_sh4			L_sh2			L_sh3			r_thigh1			r_thigh2			r_thigh3			r_thigh4			r_thigh5			L_thigh1			L_thigh2			L_thigh3			L_thigh4			r.ASIS			r.PSIS			L.ASIS			L.PSIS			C7			R_Shoulder			L_Shoulder			R_Sternum			L_Sternum			R_humerus			R_elbow_med			R_elbow_lat			R_forearm			R_wrist_radius			R_wrist_ulna			L_humerus			L_elbow_med			L_elbow_lat			L_forearm			L_wrist_radius			L_wrist_ulna			R_HJC			L_HJC			R_HJC_reg			L_HJC_reg			
		X1	Y1	Z1	X2	Y2	Z2	X3	Y3	Z3	X4	Y4	Z4	X5	Y5	Z5	X6	Y6	Z6	X7	Y7	Z7	X8	Y8	Z8	X9	Y9	Z9	X10	Y10	Z10	X11	Y11	Z11	X12	Y12	Z12	X13	Y13	Z13	X14	Y14	Z14	X15	Y15	Z15	X16	Y16	Z16	X17	Y17	Z17	X18	Y18	Z18	X19	Y19	Z19	X20	Y20	Z20	X21	Y21	Z21	X22	Y22	Z22	X23	Y23	Z23	X24	Y24	Z24	X25	Y25	Z25	X26	Y26	Z26	X27	Y27	Z27	X28	Y28	Z28	X29	Y29	Z29	X30	Y30	Z30	X31	Y31	Z31	X32	Y32	Z32	X33	Y33	Z33	X34	Y34	Z34	X35	Y35	Z35	X36	Y36	Z36	X37	Y37	Z37	X38	Y38	Z38	X39	Y39	Z39	X40	Y40	Z40	X41	Y41	Z41	X42	Y42	Z42	X43	Y43	Z43	X44	Y44	Z44	X45	Y45	Z45	X46	Y46	Z46	X47	Y47	Z47	X48	Y48	Z48	X49	Y49	Z49	X50	Y50	Z50	X51	Y51	Z51	

1	0.00000000	-36.33748	466.43289	-145.72953	18.99477	433.79313	-146.12109	151.94417	120.08119	-148.88588	122.52786	67.45148	-195.71306	270.50263	138.26565	-128.07829	287.35500	186.37838	-177.26753	-329.23206	459.60855	-409.41342	-318.88636	369.44522	-389.07869	-480.07076	104.33523	-382.19569	-545.26119	73.37643	-346.72272	-383.62329	42.33300	-409.15331	-337.18422	51.14053	-350.28294	65.06071	331.04672	-133.81952	-47.93209	408.02421	-117.06046	-9.06576	297.19632	-114.10213	-384.84674	408.34417	-438.68445	-431.43819	295.57415	-443.62314	-87.71997	710.24998	-114.01645	-44.86649	606.18620	-128.14258	-96.96710	558.86252	-119.31074	-193.65985	664.94331	-116.06909	-147.72624	557.35189	-141.03535	-197.65879	706.30440	-473.98694	-235.50731	577.52905	-436.34974	-304.25959	731.47051	-480.05193	-344.99173	616.00055	-422.05557	-104.21470	896.49684	-189.02372	-320.64558	922.45402	-248.35500	-114.63472	889.77725	-411.25120	-321.74936	926.47168	-328.41888	-222.56907	1368.01453	-295.67152	-196.95293	1333.66647	-148.69961	-163.93829	1340.41369	-425.77154	-102.89797	1297.59419	-256.19331	-100.57008	1298.29061	-297.89761	-209.92210	1222.93883	-81.80579	-334.74391	1039.79424	-110.40690	-311.52815	1046.76316	-48.50526	-271.24336	965.79245	-17.52100	-265.61613	820.50850	-2.12809	-300.23655	827.17397	16.15566	-132.96255	1247.74937	-497.05112	-135.31152	1018.30749	-510.79722	-100.62620	1052.99638	-561.17108	-3.48073	1005.52980	-543.58179	89.68025	922.66292	-508.71248	75.42936	903.97101	-542.16508	-187.16492	808.67023	-187.85274	-199.90298	807.18380	-394.96336	-177.54025	818.39153	-222.09096	-179.56253	825.75289	-368.79037	
2	0.01000000	-20.12250	465.48916	-145.83572	34.59326	430.90683	-145.98772	156.58995	113.64248	-149.14705	126.44567	61.39223	-196.10403	275.34147	129.43275	-127.31147	293.72639	176.92554	-176.51173	-319.07712	458.89216	-408.53322	-310.61496	368.56320	-388.40352	-477.87593	106.83436	-382.42194	-543.78688	77.27114	-346.86896	-383.01093	42.27711	-409.29467	-336.23616	50.48354	-350.66440	77.14256	326.80327	-133.90112	-33.27947	407.24957	-117.39196	1.88330	295.39116	-114.50143	-375.48880	409.06513	-437.83959	-424.67448	297.36298	-443.40702	-73.10660	709.16075	-113.23705	-29.51349	605.58377	-127.48898	-80.00531	558.57433	-118.84020	-178.67999	662.90321	-114.81326	-131.72847	555.80839	-140.52847	-185.70096	704.72251	-472.77678	-224.54551	576.12304	-435.39335	-292.17937	730.58259	-478.40863	-333.48886	615.05465	-420.33533	-90.20558	895.04250	-188.06267	-307.09987	920.29785	-246.56142	-101.67891	887.79610	-410.44605	-308.40894	924.03799	-326.54221	-209.76560	1366.21596	-293.66910	-184.26002	1331.69016	-146.78142	-151.09633	1338.80505	-423.75586	-90.03896	1295.66664	-254.24698	-87.72210	1296.50381	-296.02421	-197.38498	1221.01365	-79.98667	-322.35681	1037.96054	-108.96068	-299.55646	1045.09673	-46.98887	-259.35841	963.88122	-15.93996	-254.26241	818.61046	-0.39435	-288.82582	825.40920	17.75759	-119.83317	1246.18323	-494.99933	-122.43962	1016.50904	-508.67789	-87.83844	1051.32326	-558.85656	9.34860	1003.89025	-541.02752	102.46375	921.03650	-505.99206	88.38780	902.29295	-539.42071	-172.91550	806.99374	-186.40126	-186.61922	804.98945	-393.44072	-163.69401	816.70816	-220.71586	-166.09991	823.57396	-367.58156	
3	0.02000000	-4.04178	464.48088	-145.88256	50.03290	427.94200	-145.85797	161.03859	107.36111	-149.44231	130.02195	55.73848	-196.51913	279.95348	120.52773	-126.71938	299.91507	167.37341	-175.94098	-308.73195	458.19651	-407.65789	-302.15636	367.70218	-387.76461	-475.53426	109.45965	-382.68451	-542.17750	81.39792	-347.03055	-382.36581	42.23691	-409.43945	-335.26844	49.80902	-351.02199	89.01114	322.51190	-134.03182	-18.74271	406.42205	-117.67899	12.66013	293.56204	-114.89034	-365.95205	409.84153	-436.98466	-417.75269	299.25966	-443.17081	-58.46854	708.03196	-112.26650	-14.17844	604.90975	-126.72375	-63.34330	558.13608	-118.32496	-163.71737	660.91089	-113.60739	-115.80897	554.29025	-140.05111	-173.61927	703.17749	-471.55170	-213.39222	574.74973	-434.43215	-279.95826	729.72984	-476.70797	-321.81581	614.15207	-418.61104	-76.07039	893.65436	-187.00087	-293.38979	918.20336	-244.79092	-88.53721	885.86595	-409.55428	-294.90363	921.69100	-324.69476	-196.92427	1364.46161	-291.62395	-171.49470	1329.77191	-144.81762	-138.19572	1337.25801	-421.68943	-77.10207	1293.82664	-252.25822	-74.79324	1294.80098	-294.09922	-184.76153	1219.14327	-78.11676	-309.83321	1036.16519	-107.51308	-287.44439	1043.43687	-45.46081	-247.31489	962.00946	-14.35046	-242.67986	816.74451	1.30770	-277.19513	823.65263	19.34550	-106.68195	1244.67619	-492.91336	-109.69349	1014.80077	-506.54419	-75.15120	1049.68986	-556.55045	22.05516	1002.23264	-538.50072	115.10041	919.33200	-503.30880	101.15386	900.56079	-536.72499	-158.56034	805.38713	-184.89909	-173.13909	802.85548	-391.87240	-149.68105	815.04770	-219.26706	-152.46989	821.46342	-366.30547	
4	0.03000000	11.72984	463.35129	-145.81147	65.14685	424.87576	-145.71702	165.26348	101.42268	-149.78428	133.10967	50.88161	-196.96578	284.26805	111.54219	-126.45191	305.88646	157.68897	-175.70621	-298.03593	457.54278	-406.79586	-293.35896	366.87964	-387.19954	-472.92367	112.31821	-383.02335	-540.30917	85.94440	-347.22539	-381.65712	42.22082	-409.59149	-334.26192	49.09597	-351.34412	100.52723	318.19122	-134.23001	-4.45012	405.49325	-117.88056	23.16929	291.69705	-115.26087	-356.07818	410.71598	-436.11855	-410.54865	301.35781	-442.90316	-43.79132	706.82432	-110.94597	1.07893	604.08409	-125.74729	-47.23569	557.44413	-117.73763	-148.80739	659.03235	-112.48243	-100.10261	552.84331	-139.61384	-161.30303	701.70733	-470.30045	-201.88949	573.43913	-433.46692	-267.47797	728.95206	-474.90482	-309.82690	613.32832	-416.87848	-61.70172	892.38290	-185.75588	-279.37882	916.22634	-243.04665	-75.05691	884.02710	-408.50900	-281.09004	919.51067	-322.88524	-184.01093	1362.78988	-289.49740	-158.59440	1327.95742	-142.76785	-125.19492	1335.82552	-419.53481	-64.02219	1292.14826	-250.18944	-61.72060	1293.25386	-292.08273	-171.97704	1217.36653	-76.15686	-297.06319	1034.43402	-106.05850	-275.07589	1041.78808	-43.90950	-234.98752	960.20471	-12.74234	-230.67736	814.93485	2.95786	-265.16236	821.90848	20.90140	-93.50050	1243.27485	-490.76886	-97.17233	1013.25191	-504.38731	-62.64219	1048.12947	-554.25102	34.53822	1000.54203	-536.02788	127.46615	917.48923	-500.69548	113.57285	898.73158	-534.12169	-144.00828	803.90638	-183.30113	-159.30784	800.83472	-390.21699	-135.37136	813.42358	-217.69350	-138.52983	819.47878	-364.91914	
